{"title":"Suffragette.2015.BRRip.480p.x264.AAC-VYTO [P2PDL]","uid":13333877,"size":403735344,"categoryP":"video","categoryS":"movies","magnet":"?xt=urn:btih:82d20bfd9c3e9f1e70d975ceff63a68854b3f4e7&amp;dn=Suffragette.2015.BRRip.480p.x264.AAC-VYTO+%5BP2PDL%5D&amp;tr=udp%3A%2F%2Ftracker.leechers-paradise.org%3A6969&amp;tr=udp%3A%2F%2Fzer0day.ch%3A1337&amp;tr=udp%3A%2F%2Fopen.demonii.com%3A1337&amp;tr=udp%3A%2F%2Ftracker.coppersurfer.tk%3A6969&amp;tr=udp%3A%2F%2Fexodus.desync.com%3A6969","seeders":0,"leechers":2,"uploader":"VYTOP2PDL","files":7,"time":1453967862,"description":"Suffragette.2015.BRRip.480p.x264.AAC-VYTO\r\n\r\n\r\nGenre: Biography, Drama, History    \nhttp://www.imdb.com/title/tt3077214/\r\n\r\n\r\n\r\nFormat                                   : MPEG-4\r\nFile size                                : 377 MiB\r\nDuration                                 : 1h 46mn\r\nOverall bit rate                         : 494 Kbps\r\n\r\nVideo\r\nFormat                                   : AVC\r\nBit rate                                 : 459 Kbps\r\nWidth                                    : 720 pixels\r\nHeight                                   : 304 pixels\r\nDisplay aspect ratio                     : 2.35:1\r\nFrame rate mode                          : Constant\r\nFrame rate                               : 23.976 fps\r\nBit depth                                : 8 bits\r\nStream size                              : 350 MiB (93%)\r\nWriting library                          : x264 \r\n\r\nAudio\r\nFormat                                   : AAC\r\nBit rate mode                            : Variable\r\nBit rate                                 : 31.9 Kbps\r\nChannel(s)                               : 2 channels\r\nChannel positions                        : Front: L R\r\nSampling rate                            : 48.0 KHz\r\nStream size                              : 24.3 MiB (6%)\r\nLanguage                                 : English\r\n\r\nSubtitle                                 : Yes (English)\r\n\r\nScreen Shots: (Click to view)\r\n \nhttp://ititli.com/Ov \nhttp://ititli.com/OR \nhttp://ititli.com/Oy \nhttp://ititli.com/O3 \nhttp://ititli.com/OE \nhttp://ititli.com/OQ \nhttp://ititli.com/OS \nhttp://ititli.com/OZ \nhttp://ititli.com/Oc \nhttp://ititli.com/Oi \nhttp://ititli.com/Op \nhttp://ititli.com/OD\r\n\r\n----------------------------------------------------------------------------------------------------\r\n\r\n\r\nEncoder Notes: Looking For Early Access To Anything You Can Provide WEBDL, DVDScr, DVDR, BluRay,\r\nDirect Audio, Music Releases and Seedboxes. If You Got anything to offer please contact us.\r\n\r\nSupport us by donating BC - 1FgwdzPsd1y25Gea8wP1qni35uGCtmkRCD\r\n\r\nSend some love!\r\nFind us and join us!","torrent":{"xt":"urn:btih:82d20bfd9c3e9f1e70d975ceff63a68854b3f4e7","amp;dn":"Suffragette.2015.BRRip.480p.x264.AAC-VYTO+%5BP2PDL%5D","amp;tr":["udp%3A%2F%2Ftracker.leechers-paradise.org%3A6969","udp%3A%2F%2Fzer0day.ch%3A1337","udp%3A%2F%2Fopen.demonii.com%3A1337","udp%3A%2F%2Ftracker.coppersurfer.tk%3A6969","udp%3A%2F%2Fexodus.desync.com%3A6969"],"infoHash":"82d20bfd9c3e9f1e70d975ceff63a68854b3f4e7","infoHashBuffer":{"type":"Buffer","data":[130,210,11,253,156,62,159,30,112,217,117,206,255,99,166,136,84,179,244,231]},"announce":[],"urlList":[]}}